{
  "accessors": [
    {
      "bufferView": 2,
      "componentType": 5126,
      "count": 9740,
      "max": [
        1.4053599834442139,
        1.8925859928131104,
        2.0310959815979004
      ],
      "min": [
        -1.4294129610061646,
        -0.9375699758529663,
        -1.2905750274658203
      ],
      "type": "VEC3"
    },
    {
      "bufferView": 2,
      "byteOffset": 116880,
      "componentType": 5126,
      "count": 9740,
      "max": [
        0.999884843826294,
        0.9998923540115356,
        0.9978896379470825
      ],
      "min": [
        -0.9999474287033081,
        -0.999607264995575,
        -0.9998751282691956
      ],
      "type": "VEC3"
    },
    {
      "bufferView": 0,
      "componentType": 5125,
      "count": 58428,
      "type": "SCALAR"
    },
    {
      "bufferView": 2,
      "byteOffset": 233760,
      "componentType": 5126,
      "count": 125,
      "max": [
        0.3014110028743744,
        0.7422090172767639,
        -0.1794469952583313
      ],
      "min": [
        -0.20914700627326965,
        0.2309509962797165,
        -2.4995648860931396
      ],
      "type": "VEC3"
    },
    {
      "bufferView": 2,
      "byteOffset": 235260,
      "componentType": 5126,
      "count": 125,
      "max": [
        0.9931080341339111,
        0.9945395588874817,
        0.6661978960037231
      ],
      "min": [
        -0.9938675165176392,
        -0.9932405948638916,
        -0.8456265330314636
      ],
      "type": "VEC3"
    },
    {
      "bufferView": 1,
      "componentType": 5126,
      "count": 125,
      "max": [
        1.0,
        1.0
      ],
      "min": [
        0.0,
        0.013416999951004982
      ],
      "type": "VEC2"
    },
    {
      "bufferView": 0,
      "byteOffset": 233712,
      "componentType": 5125,
      "count": 558,
      "type": "SCALAR"
    }
  ],
  "asset": {
    "extras": {
      "author": "PerriSapo84 (https://sketchfab.com/PerriSapo84)",
      "license": "CC-BY-4.0 (http://creativecommons.org/licenses/by/4.0/)",
      "source": "https://sketchfab.com/3d-models/sm64-tree-0ff16e2954c54972bcb9794f31199d28",
      "title": "SM64 Tree"
    },
    "generator": "Sketchfab-16.59.0",
    "version": "2.0"
  },
  "bufferViews": [
    {
      "buffer": 0,
      "byteLength": 235944,
      "name": "floatBufferViews",
      "target": 34963
    },
    {
      "buffer": 0,
      "byteLength": 1000,
      "byteOffset": 235944,
      "byteStride": 8,
      "name": "floatBufferViews",
      "target": 34962
    },
    {
      "buffer": 0,
      "byteLength": 236760,
      "byteOffset": 236944,
      "byteStride": 12,
      "name": "floatBufferViews",
      "target": 34962
    }
  ],
  "buffers": [
    {
      "byteLength": 473704,
      "uri": "scene.bin"
    }
  ],
  "materials": [
    {
      "doubleSided": true,
      "name": "Material.001",
      "pbrMetallicRoughness": {
        "metallicFactor": 0.0,
        "roughnessFactor": 0.6
      }
    },
    {
      "doubleSided": true,
      "name": "Material.003",
      "pbrMetallicRoughness": {
        "metallicFactor": 0.0,
        "roughnessFactor": 0.6
      }
    }
  ],
  "meshes": [
    {
      "name": "Object_0",
      "primitives": [
        {
          "attributes": {
            "NORMAL": 1,
            "POSITION": 0
          },
          "indices": 2,
          "material": 0,
          "mode": 4
        }
      ]
    },
    {
      "name": "Object_1",
      "primitives": [
        {
          "attributes": {
            "NORMAL": 4,
            "POSITION": 3,
            "TEXCOORD_0": 5
          },
          "indices": 6,
          "material": 1,
          "mode": 4
        }
      ]
    }
  ],
  "nodes": [
    {
      "children": [
        1
      ],
      "matrix": [
        1.0,
        0.0,
        0.0,
        0.0,
        0.0,
        2.220446049250313e-16,
        -1.0,
        0.0,
        0.0,
        1.0,
        2.220446049250313e-16,
        0.0,
        0.0,
        0.0,
        0.0,
        1.0
      ],
      "name": "Sketchfab_model"
    },
    {
      "children": [
        2,
        3
      ],
      "name": "Arbol64.obj.cleaner.materialmerger.gles"
    },
    {
      "mesh": 0,
      "name": "Object_2"
    },
    {
      "mesh": 1,
      "name": "Object_3"
    }
  ],
  "scene": 0,
  "scenes": [
    {
      "name": "Sketchfab_Scene",
      "nodes": [
        0
      ]
    }
  ]
}
