{
  "accessors": [
    {
      "bufferView": 2,
      "componentType": 5126,
      "count": 65532,
      "max": [
        47.180198669433594,
        29.42340087890625,
        -0.023400001227855682
      ],
      "min": [
        -29.78580093383789,
        -26.043001174926758,
        -28.15740203857422
      ],
      "type": "VEC3"
    },
    {
      "bufferView": 2,
      "byteOffset": 786384,
      "componentType": 5126,
      "count": 65532,
      "max": [
        1.0,
        0.9999999403953552,
        0.9999660849571228
      ],
      "min": [
        -0.9985869526863098,
        -0.9990018606185913,
        -1.0
      ],
      "type": "VEC3"
    },
    {
      "bufferView": 3,
      "componentType": 5126,
      "count": 65532,
      "max": [
        1.0,
        1.0,
        1.0,
        1.0
      ],
      "min": [
        -1.0,
        -1.0,
        -0.999995768070221,
        -1.0
      ],
      "type": "VEC4"
    },
    {
      "bufferView": 1,
      "componentType": 5126,
      "count": 65532,
      "max": [
        0.999584972858429,
        0.999584972858429
      ],
      "min": [
        0.0004149999876972288,
        0.0004149999876972288
      ],
      "type": "VEC2"
    },
    {
      "bufferView": 1,
      "byteOffset": 524256,
      "componentType": 5126,
      "count": 65532,
      "max": [
        0.999584972858429,
        0.999584972858429
      ],
      "min": [
        0.0004149999876972288,
        0.0004149999876972288
      ],
      "type": "VEC2"
    },
    {
      "bufferView": 1,
      "byteOffset": 1048512,
      "componentType": 5126,
      "count": 65532,
      "max": [
        0.999584972858429,
        0.999584972858429
      ],
      "min": [
        0.0004149999876972288,
        0.0004149999876972288
      ],
      "type": "VEC2"
    },
    {
      "bufferView": 0,
      "componentType": 5125,
      "count": 299538,
      "type": "SCALAR"
    },
    {
      "bufferView": 2,
      "byteOffset": 1572768,
      "componentType": 5126,
      "count": 65532,
      "max": [
        47.18920135498047,
        29.440399169921875,
        -0.12159999459981918
      ],
      "min": [
        -44.41680145263672,
        -28.953298568725586,
        -32.30249786376953
      ],
      "type": "VEC3"
    },
    {
      "bufferView": 2,
      "byteOffset": 2359152,
      "componentType": 5126,
      "count": 65532,
      "max": [
        0.9999983906745911,
        1.0,
        0.9999994039535522
      ],
      "min": [
        -0.9999598860740662,
        -0.9999898076057434,
        -1.0
      ],
      "type": "VEC3"
    },
    {
      "bufferView": 3,
      "byteOffset": 1048512,
      "componentType": 5126,
      "count": 65532,
      "max": [
        1.0,
        0.9999997019767761,
        1.0,
        1.0
      ],
      "min": [
        -1.0,
        -0.9999991059303284,
        -1.0,
        -1.0
      ],
      "type": "VEC4"
    },
    {
      "bufferView": 1,
      "byteOffset": 1572768,
      "componentType": 5126,
      "count": 65532,
      "max": [
        0.999584972858429,
        0.999584972858429
      ],
      "min": [
        0.0004149999876972288,
        0.0004149999876972288
      ],
      "type": "VEC2"
    },
    {
      "bufferView": 1,
      "byteOffset": 2097024,
      "componentType": 5126,
      "count": 65532,
      "max": [
        0.999584972858429,
        0.999584972858429
      ],
      "min": [
        0.0004149999876972288,
        0.0004149999876972288
      ],
      "type": "VEC2"
    },
    {
      "bufferView": 1,
      "byteOffset": 2621280,
      "componentType": 5126,
      "count": 65532,
      "max": [
        0.999584972858429,
        0.999584972858429
      ],
      "min": [
        0.0004149999876972288,
        0.0004149999876972288
      ],
      "type": "VEC2"
    },
    {
      "bufferView": 0,
      "byteOffset": 1198152,
      "componentType": 5125,
      "count": 293934,
      "type": "SCALAR"
    },
    {
      "bufferView": 2,
      "byteOffset": 3145536,
      "componentType": 5126,
      "count": 65532,
      "max": [
        47.176597595214844,
        29.425100326538086,
        -0.14790000021457672
      ],
      "min": [
        -46.88589859008789,
        -29.524499893188477,
        -32.085899353027344
      ],
      "type": "VEC3"
    },
    {
      "bufferView": 2,
      "byteOffset": 3931920,
      "componentType": 5126,
      "count": 65532,
      "max": [
        0.9999983906745911,
        1.0,
        0.9999930262565613
      ],
      "min": [
        -0.9999999403953552,
        -1.0,
        -1.0
      ],
      "type": "VEC3"
    },
    {
      "bufferView": 3,
      "byteOffset": 2097024,
      "componentType": 5126,
      "count": 65532,
      "max": [
        1.0,
        0.9999797940254211,
        0.9999993443489075,
        1.0
      ],
      "min": [
        -1.0,
        -1.0,
        -0.9999998211860657,
        -1.0
      ],
      "type": "VEC4"
    },
    {
      "bufferView": 1,
      "byteOffset": 3145536,
      "componentType": 5126,
      "count": 65532,
      "max": [
        0.999584972858429,
        0.999584972858429
      ],
      "min": [
        0.0004149999876972288,
        0.0004149999876972288
      ],
      "type": "VEC2"
    },
    {
      "bufferView": 1,
      "byteOffset": 3669792,
      "componentType": 5126,
      "count": 65532,
      "max": [
        0.999584972858429,
        0.999584972858429
      ],
      "min": [
        0.0004149999876972288,
        0.0004149999876972288
      ],
      "type": "VEC2"
    },
    {
      "bufferView": 1,
      "byteOffset": 4194048,
      "componentType": 5126,
      "count": 65532,
      "max": [
        0.999584972858429,
        0.999584972858429
      ],
      "min": [
        0.0004149999876972288,
        0.0004149999876972288
      ],
      "type": "VEC2"
    },
    {
      "bufferView": 0,
      "byteOffset": 2373888,
      "componentType": 5125,
      "count": 292719,
      "type": "SCALAR"
    },
    {
      "bufferView": 2,
      "byteOffset": 4718304,
      "componentType": 5126,
      "count": 65532,
      "max": [
        3.773599863052368,
        29.405200958251953,
        -0.3824000060558319
      ],
      "min": [
        -47.18920135498047,
        -29.497501373291016,
        -33.4452018737793
      ],
      "type": "VEC3"
    },
    {
      "bufferView": 2,
      "byteOffset": 5504688,
      "componentType": 5126,
      "count": 65532,
      "max": [
        0.9996626377105713,
        0.9999727010726929,
        0.9999781847000122
      ],
      "min": [
        -1.0,
        -1.0,
        -1.0
      ],
      "type": "VEC3"
    },
    {
      "bufferView": 3,
      "byteOffset": 3145536,
      "componentType": 5126,
      "count": 65532,
      "max": [
        0.999998927116394,
        0.9999997615814209,
        0.999998927116394,
        1.0
      ],
      "min": [
        -0.9999932050704956,
        -1.0,
        -1.0,
        -1.0
      ],
      "type": "VEC4"
    },
    {
      "bufferView": 1,
      "byteOffset": 4718304,
      "componentType": 5126,
      "count": 65532,
      "max": [
        0.999584972858429,
        0.999584972858429
      ],
      "min": [
        0.0004149999876972288,
        0.0004149999876972288
      ],
      "type": "VEC2"
    },
    {
      "bufferView": 1,
      "byteOffset": 5242560,
      "componentType": 5126,
      "count": 65532,
      "max": [
        0.999584972858429,
        0.999584972858429
      ],
      "min": [
        0.0004149999876972288,
        0.0004149999876972288
      ],
      "type": "VEC2"
    },
    {
      "bufferView": 1,
      "byteOffset": 5766816,
      "componentType": 5126,
      "count": 65532,
      "max": [
        0.999584972858429,
        0.999584972858429
      ],
      "min": [
        0.0004149999876972288,
        0.0004149999876972288
      ],
      "type": "VEC2"
    },
    {
      "bufferView": 0,
      "byteOffset": 3544764,
      "componentType": 5125,
      "count": 300210,
      "type": "SCALAR"
    },
    {
      "bufferView": 2,
      "byteOffset": 6291072,
      "componentType": 5126,
      "count": 65532,
      "max": [
        46.94490051269531,
        29.444000244140625,
        0.0
      ],
      "min": [
        -46.63990020751953,
        -29.567798614501953,
        -31.98150062561035
      ],
      "type": "VEC3"
    },
    {
      "bufferView": 2,
      "byteOffset": 7077456,
      "componentType": 5126,
      "count": 65532,
      "max": [
        0.9999951124191284,
        1.0,
        1.0
      ],
      "min": [
        -0.9999997019767761,
        -0.9999999403953552,
        -1.0
      ],
      "type": "VEC3"
    },
    {
      "bufferView": 3,
      "byteOffset": 4194048,
      "componentType": 5126,
      "count": 65532,
      "max": [
        1.0,
        1.0,
        0.9999999403953552,
        1.0
      ],
      "min": [
        -1.0,
        -0.9999908208847046,
        -0.9999899864196777,
        -1.0
      ],
      "type": "VEC4"
    },
    {
      "bufferView": 1,
      "byteOffset": 6291072,
      "componentType": 5126,
      "count": 65532,
      "max": [
        0.999584972858429,
        0.999584972858429
      ],
      "min": [
        0.0004149999876972288,
        0.0004149999876972288
      ],
      "type": "VEC2"
    },
    {
      "bufferView": 1,
      "byteOffset": 6815328,
      "componentType": 5126,
      "count": 65532,
      "max": [
        0.999584972858429,
        0.999584972858429
      ],
      "min": [
        0.0004149999876972288,
        0.0004149999876972288
      ],
      "type": "VEC2"
    },
    {
      "bufferView": 1,
      "byteOffset": 7339584,
      "componentType": 5126,
      "count": 65532,
      "max": [
        0.999584972858429,
        0.999584972858429
      ],
      "min": [
        0.0004149999876972288,
        0.0004149999876972288
      ],
      "type": "VEC2"
    },
    {
      "bufferView": 0,
      "byteOffset": 4745604,
      "componentType": 5125,
      "count": 303306,
      "type": "SCALAR"
    },
    {
      "bufferView": 2,
      "byteOffset": 7863840,
      "componentType": 5126,
      "count": 2775,
      "max": [
        42.59360122680664,
        -7.16409969329834,
        -0.15940000116825104
      ],
      "min": [
        0.32100000977516174,
        -29.46070098876953,
        -32.30249786376953
      ],
      "type": "VEC3"
    },
    {
      "bufferView": 2,
      "byteOffset": 7897140,
      "componentType": 5126,
      "count": 2775,
      "max": [
        0.9998562335968018,
        0.9992459416389465,
        0.9879608750343323
      ],
      "min": [
        -0.986960232257843,
        -0.9999998807907104,
        -0.9974026083946228
      ],
      "type": "VEC3"
    },
    {
      "bufferView": 3,
      "byteOffset": 5242560,
      "componentType": 5126,
      "count": 2775,
      "max": [
        0.9999998211860657,
        0.9995327591896057,
        0.9999662041664124,
        1.0
      ],
      "min": [
        -1.0,
        -0.9988501667976379,
        -0.9996691346168518,
        -1.0
      ],
      "type": "VEC4"
    },
    {
      "bufferView": 1,
      "byteOffset": 7863840,
      "componentType": 5126,
      "count": 2775,
      "max": [
        0.9929519891738892,
        0.999584972858429
      ],
      "min": [
        0.0004149999876972288,
        0.0004149999876972288
      ],
      "type": "VEC2"
    },
    {
      "bufferView": 1,
      "byteOffset": 7886040,
      "componentType": 5126,
      "count": 2775,
      "max": [
        0.9929519891738892,
        0.999584972858429
      ],
      "min": [
        0.0004149999876972288,
        0.0004149999876972288
      ],
      "type": "VEC2"
    },
    {
      "bufferView": 1,
      "byteOffset": 7908240,
      "componentType": 5126,
      "count": 2775,
      "max": [
        0.9929519891738892,
        0.999584972858429
      ],
      "min": [
        0.0004149999876972288,
        0.0004149999876972288
      ],
      "type": "VEC2"
    },
    {
      "bufferView": 0,
      "byteOffset": 5958828,
      "componentType": 5125,
      "count": 9969,
      "type": "SCALAR"
    }
  ],
  "asset": {
    "extras": {
      "author": "alterego.visual (https://sketchfab.com/alterego.visual)",
      "license": "CC-BY-4.0 (http://creativecommons.org/licenses/by/4.0/)",
      "source": "https://sketchfab.com/3d-models/ground-mario-608c5ca63d3541959ba209c34af3596e",
      "title": "ground mario"
    },
    "generator": "Sketchfab-16.74.0",
    "version": "2.0"
  },
  "bufferViews": [
    {
      "buffer": 0,
      "byteLength": 5998704,
      "name": "floatBufferViews",
      "target": 34963
    },
    {
      "buffer": 0,
      "byteLength": 7930440,
      "byteOffset": 5998704,
      "byteStride": 8,
      "name": "floatBufferViews",
      "target": 34962
    },
    {
      "buffer": 0,
      "byteLength": 7930440,
      "byteOffset": 13929144,
      "byteStride": 12,
      "name": "floatBufferViews",
      "target": 34962
    },
    {
      "buffer": 0,
      "byteLength": 5286960,
      "byteOffset": 21859584,
      "byteStride": 16,
      "name": "floatBufferViews",
      "target": 34962
    }
  ],
  "buffers": [
    {
      "byteLength": 27146544,
      "uri": "scene.bin"
    }
  ],
  "images": [
    {
      "uri": "textures/Material.001_baseColor.png"
    },
    {
      "uri": "textures/Material.001_metallicRoughness.png"
    },
    {
      "uri": "textures/Material.001_normal.png"
    }
  ],
  "materials": [
    {
      "doubleSided": true,
      "name": "Material.001",
      "normalTexture": {
        "index": 2,
        "texCoord": 1
      },
      "pbrMetallicRoughness": {
        "baseColorTexture": {
          "index": 0
        },
        "metallicRoughnessTexture": {
          "index": 1
        }
      }
    }
  ],
  "meshes": [
    {
      "name": "texture_pbr_v128_Material.001_0",
      "primitives": [
        {
          "attributes": {
            "NORMAL": 1,
            "POSITION": 0,
            "TANGENT": 2,
            "TEXCOORD_0": 3,
            "TEXCOORD_1": 4,
            "TEXCOORD_2": 5
          },
          "indices": 6,
          "material": 0,
          "mode": 4
        }
      ]
    },
    {
      "name": "texture_pbr_v128_Material.001_0",
      "primitives": [
        {
          "attributes": {
            "NORMAL": 8,
            "POSITION": 7,
            "TANGENT": 9,
            "TEXCOORD_0": 10,
            "TEXCOORD_1": 11,
            "TEXCOORD_2": 12
          },
          "indices": 13,
          "material": 0,
          "mode": 4
        }
      ]
    },
    {
      "name": "texture_pbr_v128_Material.001_0",
      "primitives": [
        {
          "attributes": {
            "NORMAL": 15,
            "POSITION": 14,
            "TANGENT": 16,
            "TEXCOORD_0": 17,
            "TEXCOORD_1": 18,
            "TEXCOORD_2": 19
          },
          "indices": 20,
          "material": 0,
          "mode": 4
        }
      ]
    },
    {
      "name": "texture_pbr_v128_Material.001_0",
      "primitives": [
        {
          "attributes": {
            "NORMAL": 22,
            "POSITION": 21,
            "TANGENT": 23,
            "TEXCOORD_0": 24,
            "TEXCOORD_1": 25,
            "TEXCOORD_2": 26
          },
          "indices": 27,
          "material": 0,
          "mode": 4
        }
      ]
    },
    {
      "name": "texture_pbr_v128_Material.001_0",
      "primitives": [
        {
          "attributes": {
            "NORMAL": 29,
            "POSITION": 28,
            "TANGENT": 30,
            "TEXCOORD_0": 31,
            "TEXCOORD_1": 32,
            "TEXCOORD_2": 33
          },
          "indices": 34,
          "material": 0,
          "mode": 4
        }
      ]
    },
    {
      "name": "texture_pbr_v128_Material.001_0",
      "primitives": [
        {
          "attributes": {
            "NORMAL": 36,
            "POSITION": 35,
            "TANGENT": 37,
            "TEXCOORD_0": 38,
            "TEXCOORD_1": 39,
            "TEXCOORD_2": 40
          },
          "indices": 41,
          "material": 0,
          "mode": 4
        }
      ]
    }
  ],
  "nodes": [
    {
      "children": [
        1
      ],
      "matrix": [
        1.0,
        0.0,
        0.0,
        0.0,
        0.0,
        2.220446049250313e-16,
        -1.0,
        0.0,
        0.0,
        1.0,
        2.220446049250313e-16,
        0.0,
        0.0,
        0.0,
        0.0,
        1.0
      ],
      "name": "Sketchfab_model"
    },
    {
      "children": [
        2
      ],
      "matrix": [
        0.009999999776482582,
        0.0,
        0.0,
        0.0,
        0.0,
        0.0,
        0.009999999776482582,
        0.0,
        0.0,
        -0.009999999776482582,
        0.0,
        0.0,
        0.0,
        0.0,
        0.0,
        1.0
      ],
      "name": "e15a7ee7092a416b8eeea394559375eb.fbx"
    },
    {
      "children": [
        3
      ],
      "name": "RootNode"
    },
    {
      "children": [
        4,
        5,
        6,
        7,
        8,
        9
      ],
      "matrix": [
        1.0,
        0.0,
        0.0,
        0.0,
        0.0,
        -4.371139006309477e-08,
        0.999999999999999,
        0.0,
        0.0,
        -0.999999999999999,
        -4.371139006309477e-08,
        0.0,
        0.0,
        0.0,
        0.0,
        1.0
      ],
      "name": "texture_pbr_v128"
    },
    {
      "mesh": 0,
      "name": "texture_pbr_v128_Material.001_0"
    },
    {
      "mesh": 1,
      "name": "texture_pbr_v128_Material.001_0"
    },
    {
      "mesh": 2,
      "name": "texture_pbr_v128_Material.001_0"
    },
    {
      "mesh": 3,
      "name": "texture_pbr_v128_Material.001_0"
    },
    {
      "mesh": 4,
      "name": "texture_pbr_v128_Material.001_0"
    },
    {
      "mesh": 5,
      "name": "texture_pbr_v128_Material.001_0"
    }
  ],
  "samplers": [
    {
      "magFilter": 9729,
      "minFilter": 9987,
      "wrapS": 10497,
      "wrapT": 10497
    }
  ],
  "scene": 0,
  "scenes": [
    {
      "name": "Sketchfab_Scene",
      "nodes": [
        0
      ]
    }
  ],
  "textures": [
    {
      "sampler": 0,
      "source": 0
    },
    {
      "sampler": 0,
      "source": 1
    },
    {
      "sampler": 0,
      "source": 2
    }
  ]
}
